<?xml version="1.0" encoding="UTF-8"?>
<svg id="Layer_2" data-name="Layer 2" xmlns="http://www.w3.org/2000/svg" viewBox="0 0 722.85 204.42">
  <defs>
    <style>
      .cls-1 {
        fill: #17323e;
      }

      .cls-2 {
        fill: #9bc273;
      }
    </style>
  </defs>
  <g id="Layer_1-2" data-name="Layer 1">
    <g>
      <path class="cls-2" d="m64.02,62.24c-.11.1.02.27.16.21,47.31-22.42,49.64,32.38,9.21,18.55-5.77-1.58-12.85-3.3-19.81-3.3s-10.95,1.6-12.86,2.26c-.18.06-.36-.1-.32-.29.86-3.88,7.91-31.68,38.35-32.64,23.67-.75,32.43,14.62,55.32,7.62.27-.08.55.07.6.35,0,0-.04-.26,0,0,.29,1.87,1.34,8.84,1.34,13.01,0,18.25-7.15,35.39-20.15,48.27-12.85,12.74-29.82,19.73-47.85,19.73-.2,0-.39,0-.59,0-18-.15-35.53-7.63-48.1-20.52C6.44,102.28-.41,84.84.02,66.37.88,29.77,31.38,0,68.01,0h.23c32.59.11,51,23.05,53.03,25.7.11.14.1.34-.03.47l-17.72,17.72c-.15.16-.41.13-.53-.05-1.73-2.54-13.21-18.11-34.55-18.31-10.73-.1-21.07,3.8-28.99,11.04-9.41,8.6-14.36,20.51-13.87,33.13.85,21.62,18.42,39.5,40.02,40.69,15.88.9,30.68-7.2,38.69-20.34h0s6.14-8.57,6.23-22.06c.07-11.06-30.15-20.47-46.5-5.76"/>
      <path class="cls-2" d="m369.96,125.73c-1.58-3.48-1.88-7.42-1.96-11.13v-45.15c0-11.47-5.46-23.11-14.97-31.94-9.59-8.89-22.59-13.79-36.6-13.79s-27.01,4.9-36.61,13.79c-9.52,8.82-14.97,20.47-14.97,31.94v62.53h25.03v-62.53c0-5.3,2.91-10.49,8.18-14.63,4.96-3.89,11.48-6.03,18.38-6.03s13.39,2.14,18.34,6.03c5.28,4.14,8.18,9.34,8.18,14.63v49.97c.04,2.29.52,4.45,1.42,6.42,2.28,5,7.04,8.52,13.41,9.92,1.91.42,3.93.63,6,.63,3.11,0,6.3-.48,9.48-1.42l4.28-1.27-3.05-2.31c-2.02-1.53-3.51-3.38-4.55-5.67"/>
      <path class="cls-2" d="m719.81,131.02c-2-1.52-3.48-3.36-4.51-5.63-1.56-3.42-1.85-7.35-1.94-10.75l-.04-34.02c0-14.8-5.78-28.92-16.27-39.76-10.55-10.9-24.45-17.02-39.16-17.22-15.29-.21-29.82,5.66-40.66,16.53-10.85,10.88-16.67,25.34-16.41,40.71.25,14.38,5.99,28.01,16.17,38.37,10.67,10.87,24.2,16.85,38.1,16.85,9.69,0,25.95-3.13,25.95-24.08v-11.51l-2.48,2.32c-1.06.99-2.83,2.48-5.26,3.93-5.52,3.31-11.58,4.85-18.01,4.48-15.62-.86-28.32-13.25-29.54-28.82-.7-8.93,2.26-17.44,8.33-23.95,5.92-6.36,14.3-10,22.98-10h.26c17.18.14,31.16,14.51,31.16,32.04v38.74c.1.72.59,4.42,1.42,6.26,2.26,4.96,6.99,8.46,13.32,9.85,4.77,1.05,10.12.78,15.37-.78l4.26-1.26-3.04-2.3Z"/>
      <path class="cls-2" d="m489.72,130.39l-.73,1.28,1.43-.35c5.62-1.36,11.4-2.02,17.66-2.02,10.92,0,21.28,2.07,30.84,4.3,4.86,1.13,9.85,1.7,14.84,1.7,12.68,0,24.72-3.61,33.89-10.17,6-4.29,10.35-9.64,12.59-15.46l.44-1.15-1.19.3c-5.73,1.42-11.63,2.11-18.02,2.11-10.94,0-21.29-2.06-30.84-4.3-13.33-3.12-15.09-.65-15.1-.64,0,0,58.55-66.25,64.44-76.67l.73-1.28-1.43.35c-5.63,1.36-11.4,2.02-17.66,2.02-10.92,0-21.28-2.07-30.84-4.3-4.86-1.13-9.85-1.7-14.84-1.7-12.68,0-24.72,3.61-33.89,10.17-6,4.29-10.35,9.64-12.59,15.46l-.44,1.15,1.19-.3c5.73-1.42,11.63-2.11,18.02-2.11,10.94,0,21.29,2.07,30.84,4.3,13.33,3.12,15.09.65,15.1.64,0,0-58.55,66.25-64.44,76.67"/>
      <path class="cls-2" d="m200.08,23.63c-30.99,0-56.22,25.21-56.25,56.19-.03,29.53,22.98,54.21,52.4,56.18,1.26.09,2.56.13,3.86.13,16.44,0,31.82-7.09,42.53-19.49l-17.21-17.21c-6.05,7.82-15.41,12.46-25.32,12.46-17.65,0-32.01-14.36-32.01-32.01s14.36-32.01,32.01-32.01c11.89,0,22.87,6.69,28.36,17.16-4.13-.41-8.3.04-12.28,1.32-5.2,1.66-10.8,3.19-16.6,3.19-3.81,0-7.31-.66-10.69-2l-4.32-1.72.9,4.57c1.18,6.01,4.13,11.46,8.54,15.77,5.76,5.63,13.32,8.73,21.27,8.73,3.13,0,6.26-.49,9.3-1.46,5.2-1.66,10.81-3.19,16.6-3.19,2.9,0,8.24,1.31,10.93,2.09l2.7.78.5-2.76c.04-.24,1.05-5.85,1.05-10.45,0-31.02-25.23-56.26-56.25-56.26"/>
      <path class="cls-2" d="m432.74,23.63c-30.99,0-56.22,25.21-56.25,56.19-.03,29.53,22.98,54.21,52.4,56.18,1.26.09,2.56.13,3.86.13,16.44,0,31.82-7.09,42.53-19.49l-17.21-17.21c-6.05,7.82-15.41,12.46-25.32,12.46-17.65,0-32.01-14.36-32.01-32.01s14.36-32.01,32.01-32.01c11.89,0,22.87,6.69,28.36,17.16-4.13-.41-8.3.04-12.28,1.32-5.2,1.66-10.8,3.19-16.6,3.19-3.81,0-7.31-.66-10.69-2l-4.32-1.72.9,4.57c1.18,6.01,4.13,11.46,8.54,15.77,5.76,5.63,13.32,8.73,21.27,8.73,3.13,0,6.26-.49,9.3-1.46,5.2-1.66,10.81-3.19,16.6-3.19,2.9,0,8.24,1.31,10.93,2.09l2.7.78.5-2.76c.04-.24,1.05-5.85,1.05-10.45,0-31.02-25.24-56.26-56.25-56.26"/>
    </g>
    <g>
      <path class="cls-1" d="m37.3,167.1c-5.86,0-9.89,4.52-9.89,12.18s3.78,11.93,9.59,11.93c4.62,0,7.36-2.68,7.7-7.7h-4.52v-4.82h14.41v4.77h-3.18v11.98h-6.11v-3.63c-1.14,2.83-4.32,4.32-9.24,4.32-9.94,0-16.1-6.41-16.1-17.14s6.06-16.7,15.7-16.7c4.42,0,7.45,1.04,9.59,3.68v-2.98h6.01v11.33h-6.16c-.5-4.47-3.53-7.21-7.8-7.21"/>
      <path class="cls-1" d="m68.92,171.72c7.55,0,12.17,4.62,12.17,12.12s-4.67,12.17-12.22,12.17-12.17-4.62-12.17-12.17,4.67-12.12,12.22-12.12m-.05,19.58c3.53,0,5.42-2.53,5.42-7.5s-1.84-7.45-5.37-7.45-5.42,2.48-5.42,7.45,1.84,7.5,5.37,7.5"/>
      <path class="cls-1" d="m95.29,171.72c7.55,0,12.17,4.62,12.17,12.12s-4.67,12.17-12.22,12.17-12.17-4.62-12.17-12.17,4.67-12.12,12.22-12.12m-.05,19.58c3.53,0,5.42-2.53,5.42-7.5s-1.84-7.45-5.37-7.45-5.42,2.48-5.42,7.45,1.84,7.5,5.37,7.5"/>
      <path class="cls-1" d="m124.07,167.5v-4.52h9.69v27.83h3.33v4.62h-9.19v-4.62c-2.09,3.58-4.77,5.22-8.5,5.22-5.76,0-9.99-4.57-9.99-12.22s3.93-11.98,10.19-11.98c3.13,0,5.71,1.29,7.65,3.88v-8.2h-3.18Zm-2.34,23.55c3.28,0,5.56-2.73,5.56-7.25s-2.24-7.26-5.56-7.26c-3.53,0-5.57,2.53-5.57,7.26s2.24,7.25,5.57,7.25"/>
      <path class="cls-1" d="m155.48,176.64h-3.98v-4.32h3.98v-3.33c0-4.32,3.33-7.26,8.89-7.26,1.09,0,2.63.15,4.62.45v5.02c-1.14-.5-2.09-.7-2.83-.7-2.83,0-4.22,1.59-4.22,4.82,0,.3,0,.65.05.99h5.22v4.32h-5.22v14.16h4.02v4.62h-14.56v-4.62h4.03v-14.16Z"/>
      <path class="cls-1" d="m180.52,171.72c7.55,0,12.17,4.62,12.17,12.12s-4.67,12.17-12.22,12.17-12.17-4.62-12.17-12.17,4.67-12.12,12.22-12.12m-.05,19.58c3.53,0,5.42-2.53,5.42-7.5s-1.84-7.45-5.37-7.45-5.42,2.48-5.42,7.45,1.84,7.5,5.37,7.5"/>
      <path class="cls-1" d="m197.2,176.79h-3.13v-4.47h9.64v4.17c1.79-3.33,4.07-4.92,7.16-4.92.84,0,1.74.15,2.68.35v5.47c-.94-.15-1.84-.2-2.63-.2-4.97,0-7.21,2.78-7.21,8.75v4.87h3.28v4.62h-13.07v-4.62h3.28v-14.01Z"/>
      <path class="cls-1" d="m227.72,190.8h3.13v-14.01h-3.13v-4.47h9.49v3.68c2.14-2.98,4.67-4.27,8.25-4.27,5.57,0,8,2.88,8,8.85v10.24h3.08v4.62h-13.17v-4.62h3.53v-10.24c0-2.48-1.49-4.07-3.93-4.07-3.28,0-5.61,2.38-5.61,6.01v8.3h3.53v4.62h-13.17v-4.62Z"/>
      <path class="cls-1" d="m273.78,195.42v-3.13c-1.84,2.53-4.27,3.73-7.6,3.73-4.97,0-8.2-3.03-8.2-7.4,0-4.82,3.43-7.75,9.79-7.75h6.01v-1.79c0-1.69-1.69-2.98-4.47-2.98-2.53,0-3.98,1.19-4.12,3.33h-6.11c.4-5.47,3.53-7.7,10.14-7.7,7.45,0,10.73,2.43,10.73,8.15v10.93h2.88v4.62h-9.04Zm-2.93-10.44c-4.08,0-6.11,1.09-6.11,3.18s1.24,3.13,3.48,3.13c3.23,0,5.37-2.19,5.57-6.16-1.09-.1-2.09-.15-2.93-.15"/>
      <path class="cls-1" d="m292.59,176.89v12.27c0,1.44.45,2.14,1.59,2.14,1.39,0,2.04-.99,2.04-2.93v-.65h4.02c.05.5.1.99.1,1.44,0,4.47-2.58,6.86-7.16,6.86-4.92,0-7.16-1.89-7.16-6.16v-12.97h-3.68v-4.57h3.68v-4.57l6.56-2.38v6.96h6.11v4.57h-6.11Z"/>
      <path class="cls-1" d="m303.74,176.89h-2.93v-4.57h9.49v14.86c0,2.48,1.49,4.03,3.93,4.03,3.28,0,5.62-2.34,5.62-5.96v-8.35h-2.93v-4.57h9.44v18.64h2.43v4.47h-8.8v-3.68c-2.19,2.98-4.57,4.27-7.95,4.27-5.91,0-8.3-2.83-8.3-8.85v-10.29Z"/>
      <path class="cls-1" d="m334.18,176.79h-3.13v-4.47h9.64v4.17c1.79-3.33,4.07-4.92,7.16-4.92.84,0,1.74.15,2.68.35v5.47c-.94-.15-1.84-.2-2.63-.2-4.97,0-7.21,2.78-7.21,8.75v4.87h3.28v4.62h-13.07v-4.62h3.28v-14.01Z"/>
      <path class="cls-1" d="m374.23,188.22c-1.09,5.27-4.62,7.8-10.73,7.8-7.75,0-12.17-4.47-12.17-12.12s4.47-12.17,11.68-12.17,11.53,4.22,11.53,11.88c0,.7-.05,1.39-.1,2.09h-16.45c0,3.68,1.89,5.66,5.22,5.66,2.48,0,4.08-1.04,4.92-3.13h6.11Zm-6.21-6.76v-.5c0-2.73-2.04-4.67-4.97-4.67s-5.02,2.09-5.02,5.17h9.99Z"/>
      <rect class="cls-1" x="377.71" y="188.12" width="7.3" height="7.3"/>
      <path class="cls-1" d="m419.89,167.1c-5.86,0-9.89,4.52-9.89,12.18s3.78,11.93,9.59,11.93c4.62,0,7.35-2.68,7.7-7.7h-4.52v-4.82h14.41v4.77h-3.18v11.98h-6.11v-3.63c-1.14,2.83-4.32,4.32-9.24,4.32-9.94,0-16.1-6.41-16.1-17.14s6.06-16.7,15.7-16.7c4.42,0,7.45,1.04,9.59,3.68v-2.98h6.01v11.33h-6.16c-.5-4.47-3.53-7.21-7.8-7.21"/>
      <path class="cls-1" d="m451.51,171.72c7.55,0,12.17,4.62,12.17,12.12s-4.67,12.17-12.22,12.17-12.17-4.62-12.17-12.17,4.67-12.12,12.22-12.12m-.05,19.58c3.53,0,5.42-2.53,5.42-7.5s-1.84-7.45-5.37-7.45-5.42,2.48-5.42,7.45,1.84,7.5,5.37,7.5"/>
      <path class="cls-1" d="m477.88,171.72c7.55,0,12.17,4.62,12.17,12.12s-4.67,12.17-12.22,12.17-12.17-4.62-12.17-12.17,4.67-12.12,12.22-12.12m-.05,19.58c3.53,0,5.42-2.53,5.42-7.5s-1.84-7.45-5.37-7.45-5.42,2.48-5.42,7.45,1.84,7.5,5.37,7.5"/>
      <path class="cls-1" d="m506.67,167.5v-4.52h9.69v27.83h3.33v4.62h-9.19v-4.62c-2.09,3.58-4.77,5.22-8.5,5.22-5.76,0-9.99-4.57-9.99-12.22s3.93-11.98,10.19-11.98c3.13,0,5.71,1.29,7.65,3.88v-8.2h-3.18Zm-2.34,23.55c3.28,0,5.56-2.73,5.56-7.25s-2.24-7.26-5.56-7.26c-3.53,0-5.57,2.53-5.57,7.26s2.24,7.25,5.57,7.25"/>
      <path class="cls-1" d="m538.07,176.64h-3.98v-4.32h3.98v-3.33c0-4.32,3.33-7.26,8.89-7.26,1.09,0,2.63.15,4.62.45v5.02c-1.14-.5-2.09-.7-2.83-.7-2.83,0-4.22,1.59-4.22,4.82,0,.3,0,.65.05.99h5.22v4.32h-5.22v14.16h4.02v4.62h-14.56v-4.62h4.03v-14.16Z"/>
      <path class="cls-1" d="m563.11,171.72c7.55,0,12.17,4.62,12.17,12.12s-4.67,12.17-12.22,12.17-12.17-4.62-12.17-12.17,4.67-12.12,12.22-12.12m-.05,19.58c3.53,0,5.42-2.53,5.42-7.5s-1.84-7.45-5.37-7.45-5.42,2.48-5.42,7.45,1.84,7.5,5.37,7.5"/>
      <path class="cls-1" d="m579.8,176.79h-3.13v-4.47h9.64v4.17c1.79-3.33,4.07-4.92,7.16-4.92.84,0,1.74.15,2.68.35v5.47c-.94-.15-1.84-.2-2.63-.2-4.97,0-7.21,2.78-7.21,8.75v4.87h3.28v4.62h-13.07v-4.62h3.28v-14.01Z"/>
      <path class="cls-1" d="m609.16,172.32h12.82v4.47h-3.28l4.82,12.13,5.12-12.13h-3.28v-4.47h11.98v4.47h-2.33l-10.83,23.01c-1.64,3.48-3.28,4.62-7.4,4.62-1.19,0-2.48-.15-3.78-.35v-4.92c1.29.25,2.29.35,3.03.35,2.29,0,3.38-1.19,4.02-4.07l-8.3-18.63h-2.58v-4.47Z"/>
      <path class="cls-1" d="m650.29,171.72c7.55,0,12.17,4.62,12.17,12.12s-4.67,12.17-12.22,12.17-12.17-4.62-12.17-12.17,4.67-12.12,12.22-12.12m-.05,19.58c3.53,0,5.42-2.53,5.42-7.5s-1.84-7.45-5.37-7.45-5.42,2.48-5.42,7.45,1.84,7.5,5.37,7.5"/>
      <path class="cls-1" d="m666.42,176.89h-2.93v-4.57h9.49v14.86c0,2.48,1.49,4.03,3.93,4.03,3.28,0,5.62-2.34,5.62-5.96v-8.35h-2.93v-4.57h9.44v18.64h2.44v4.47h-8.8v-3.68c-2.19,2.98-4.57,4.27-7.95,4.27-5.91,0-8.3-2.83-8.3-8.85v-10.29Z"/>
      <rect class="cls-1" x="695.59" y="188.12" width="7.3" height="7.3"/>
    </g>
  </g>
</svg>